<svg xmlns="http://www.w3.org/2000/svg" viewBox="0 0 1200 176" width="1200" height="176" role="img" aria-label="Language distribution across public repositories">
<defs><pattern id="grid" width="32" height="32" patternUnits="userSpaceOnUse"><path d="M32 0H0V32" fill="none" stroke="#1c222a" stroke-width="1"/></pattern><clipPath id="cardclip"><rect x="1" y="1" width="1198" height="174" rx="16"/></clipPath><linearGradient id="sheen" x1="0" y1="0" x2="1" y2="0"><stop offset="0" stop-color="#fff" stop-opacity="0"/><stop offset="0.5" stop-color="#fff" stop-opacity="0.13"/><stop offset="1" stop-color="#fff" stop-opacity="0"/></linearGradient></defs>
<rect x="1" y="1" width="1198" height="174" rx="16" fill="#0f1216" stroke="#2b323d"/>
<g clip-path="url(#cardclip)"><rect width="1200" height="176" fill="url(#grid)" opacity="0.45"/></g>
<text x="40" y="38" font-family="ui-monospace, SFMono-Regular, Menlo, Consolas, monospace" font-size="12" fill="#8b949e" letter-spacing="1.6">LANGUAGES · MEASURED ACROSS PUBLIC REPOSITORIES · 519 KB</text>
<defs><clipPath id="barclip"><rect x="40" y="70" width="1120" height="26" rx="13"/></clipPath></defs>
<g clip-path="url(#barclip)">
<rect x="40" y="70" width="1120" height="26" fill="#171b21"/>
<rect x="40.0" y="70" width="409.3" height="26" fill="#3572A5"/>
<rect x="449.3" y="70" width="352.9" height="26" fill="#dea584"/>
<rect x="802.2" y="70" width="154.6" height="26" fill="#f1e05a"/>
<rect x="956.7" y="70" width="124.2" height="26" fill="#e34c26"/>
<rect x="1080.9" y="70" width="48.4" height="26" fill="#8b6fc4"/>
<rect x="1129.4" y="70" width="14.4" height="26" fill="#2f6fbd"/>
<rect x="1143.8" y="70" width="14.4" height="26" fill="#89e051"/>
<rect x="1158.2" y="70" width="1.8" height="26" fill="#5c7d8a"/>
<rect x="449.3" y="70" width="1.5" height="26" fill="#0f1216" opacity="0.55"/>
<rect x="802.2" y="70" width="1.5" height="26" fill="#0f1216" opacity="0.55"/>
<rect x="956.7" y="70" width="1.5" height="26" fill="#0f1216" opacity="0.55"/>
<rect x="1080.9" y="70" width="1.5" height="26" fill="#0f1216" opacity="0.55"/>
<rect x="1129.4" y="70" width="1.5" height="26" fill="#0f1216" opacity="0.55"/>
<rect x="1143.8" y="70" width="1.5" height="26" fill="#0f1216" opacity="0.55"/>
<rect x="1158.2" y="70" width="1.5" height="26" fill="#0f1216" opacity="0.55"/>
<rect x="-260" y="70" width="260" height="26" fill="url(#sheen)"><animate attributeName="x" values="-260;1200" dur="4.5s" repeatCount="indefinite"/></rect>
</g>
<rect x="40" y="70" width="1120" height="26" rx="13" fill="none" stroke="#2b323d"/>
<g font-family="ui-monospace, SFMono-Regular, Menlo, Consolas, monospace" font-size="11.5">
<circle cx="45" cy="129" r="4.5" fill="#3572A5"/>
<text x="58" y="133" fill="#adbac7">Python</text>
<text x="109" y="133" fill="#5b6572">36.5%</text>
<circle cx="175" cy="129" r="4.5" fill="#dea584"/>
<text x="188" y="133" fill="#adbac7">Rust</text>
<text x="224" y="133" fill="#5b6572">31.5%</text>
<circle cx="291" cy="129" r="4.5" fill="#f1e05a"/>
<text x="304" y="133" fill="#adbac7">JavaScript</text>
<text x="383" y="133" fill="#5b6572">13.8%</text>
<circle cx="449" cy="129" r="4.5" fill="#e34c26"/>
<text x="462" y="133" fill="#adbac7">HTML</text>
<text x="499" y="133" fill="#5b6572">11.1%</text>
<circle cx="565" cy="129" r="4.5" fill="#8b6fc4"/>
<text x="578" y="133" fill="#adbac7">CSS</text>
<text x="608" y="133" fill="#5b6572">4.3%</text>
<circle cx="667" cy="129" r="4.5" fill="#2f6fbd"/>
<text x="680" y="133" fill="#adbac7">PowerShell</text>
<text x="759" y="133" fill="#5b6572">1.3%</text>
<circle cx="818" cy="129" r="4.5" fill="#89e051"/>
<text x="831" y="133" fill="#adbac7">Shell</text>
<text x="875" y="133" fill="#5b6572">1.3%</text>
<circle cx="934" cy="129" r="4.5" fill="#5c7d8a"/>
<text x="947" y="133" fill="#adbac7">Dockerfile</text>
<text x="1026" y="133" fill="#5b6572">0.2%</text>
</g>
<text x="40" y="160" font-family="ui-monospace, SFMono-Regular, Menlo, Consolas, monospace" font-size="11" fill="#5b6572">Go is in the toolkit but not represented here yet — nothing public in it so far.</text>
</svg>
